<?xml version="1.0" standalone="no"?>
<!DOCTYPE svg PUBLIC "-//W3C//DTD SVG 20010904//EN"
 "http://www.w3.org/TR/2001/REC-SVG-20010904/DTD/svg10.dtd">
<svg version="1.0" xmlns="http://www.w3.org/2000/svg"
 width="460.000000pt" height="460.000000pt" viewBox="0 0 460.000000 460.000000"
 preserveAspectRatio="xMidYMid meet">
<metadata>
Created by potrace 1.14, written by Peter Selinger 2001-2017
</metadata>
<g transform="translate(0.000000,460.000000) scale(0.100000,-0.100000)"
fill="#000000" stroke="none">
<path d="M3546 3862 c-3 -2 -22 -6 -43 -9 -21 -3 -60 -15 -88 -28 -27 -12 -60
-26 -72 -29 -39 -12 -25 -27 23 -25 32 2 50 -2 58 -12 6 -9 26 -22 44 -30 41
-18 49 -40 59 -158 3 -35 -1 -84 -7 -110 -7 -25 -14 -54 -17 -63 -2 -9 -19
-26 -38 -38 l-33 -20 -36 21 c-44 26 -53 56 -32 109 9 22 16 53 16 68 0 28
-24 72 -39 72 -17 0 -51 -89 -58 -152 -8 -62 -8 -63 -48 -76 -22 -7 -49 -11
-61 -8 -30 8 -55 62 -43 93 10 26 13 193 3 193 -3 0 -32 -23 -63 -50 -41 -35
-70 -73 -96 -123 -42 -81 -102 -147 -133 -147 -19 0 -36 -21 -82 -99 -9 -14
-30 -48 -48 -76 -17 -27 -32 -55 -32 -61 0 -6 -11 -32 -25 -58 -17 -31 -25
-63 -25 -95 l0 -48 -64 -1 -64 -1 -6 33 c-13 69 -121 84 -277 37 -35 -10 -81
-22 -101 -25 -21 -4 -60 -18 -87 -32 l-49 -26 -69 69 c-73 73 -228 193 -250
193 -7 0 -13 3 -13 8 0 7 -16 17 -78 47 -27 13 -39 14 -66 4 -44 -16 -85 4
-108 52 -16 34 -23 38 -144 77 -70 23 -129 40 -131 38 -2 -2 -5 -12 -8 -24
-14 -75 -102 -204 -149 -218 -12 -3 -29 -13 -39 -22 -11 -9 -35 -16 -59 -15
-32 1 -46 7 -64 29 -31 37 -54 89 -54 122 0 14 -16 58 -35 99 -19 41 -35 80
-35 88 0 25 -28 32 -165 36 -84 3 -113 -4 -96 -24 5 -7 12 -50 15 -97 5 -80
21 -221 46 -420 6 -47 23 -123 36 -170 47 -155 46 -152 16 -146 -124 26 -268
32 -342 15 -25 -6 -52 -12 -61 -14 -21 -4 -87 -50 -110 -76 -15 -17 -19 -38
-19 -95 0 -87 6 -106 54 -163 33 -40 115 -102 141 -107 6 -1 33 -15 61 -32 28
-16 62 -33 75 -37 13 -4 44 -18 68 -31 24 -13 48 -24 53 -24 6 0 43 -16 84
-35 40 -19 78 -35 84 -35 6 0 33 -11 59 -25 l49 -24 -15 -68 c-8 -37 -23 -144
-33 -238 -29 -249 -27 -266 20 -203 25 33 30 74 18 135 -3 17 -9 37 -13 42 -8
13 21 45 34 37 4 -3 11 -26 15 -52 11 -82 85 -130 198 -128 51 1 68 -2 73 -14
6 -15 -24 -44 -38 -35 -15 9 -72 -21 -109 -58 -34 -34 -65 -109 -51 -123 9 -8
-7 -76 -17 -76 -6 0 -10 7 -10 15 0 8 -7 15 -16 15 -12 0 -15 6 -10 24 10 39
-31 104 -72 116 -42 11 -54 6 -51 -23 4 -64 -1 -99 -16 -94 -8 4 -17 2 -20 -3
-4 -6 -17 -10 -31 -10 -13 0 -24 -3 -24 -8 0 -4 -17 -16 -37 -27 -44 -23 -170
-150 -179 -180 -4 -11 -14 -28 -22 -38 -39 -44 -54 -201 -28 -288 13 -44 79
-150 97 -157 5 -2 34 -29 66 -61 32 -31 79 -70 105 -87 27 -16 48 -32 48 -36
0 -3 16 -12 35 -18 19 -6 35 -15 35 -19 0 -4 24 -18 52 -32 29 -13 55 -27 59
-31 3 -4 33 -19 68 -33 34 -14 70 -30 79 -35 28 -15 83 -36 159 -61 76 -24 87
-33 54 -44 -11 -3 -22 -12 -25 -20 -5 -13 59 -15 485 -15 l491 0 52 29 c45 24
62 28 112 25 163 -10 200 -16 232 -34 32 -20 55 -20 953 -20 629 0 919 3 919
10 0 6 -16 34 -35 63 -19 28 -35 57 -35 63 0 6 -7 17 -15 24 -7 6 -28 35 -45
63 -17 29 -42 68 -56 87 -41 58 -155 179 -174 185 -38 12 -32 37 22 92 72 75
70 72 108 128 66 95 89 160 126 365 24 132 26 160 21 310 -9 248 -61 527 -134
715 -8 22 -22 58 -30 80 -20 55 -53 124 -63 130 -5 3 -11 23 -15 46 -7 39 -5
42 45 87 73 65 145 138 215 217 33 37 77 86 98 108 20 22 37 45 37 51 0 6 14
40 30 74 23 49 30 78 30 123 0 57 -1 59 -33 73 -19 7 -55 16 -80 18 -45 5
-128 -10 -143 -25 -4 -4 -16 -7 -27 -7 -25 0 -130 -71 -187 -128 -25 -24 -57
-53 -72 -63 -30 -22 -30 -22 -43 51 -10 58 -116 407 -154 510 -15 41 -35 98
-44 125 -64 199 -92 265 -116 279 -17 11 -48 15 -55 8z m-818 -2066 c11 -10
16 -34 17 -67 0 -47 -3 -54 -39 -85 -56 -48 -157 -103 -176 -95 -50 20 -110
99 -103 136 6 28 67 92 97 101 12 4 28 14 37 23 14 15 27 16 84 10 40 -4 73
-13 83 -23z m-939 -106 c19 -5 41 -17 51 -27 16 -18 16 -20 -3 -118 -2 -5 -9
-25 -16 -43 -12 -28 -18 -32 -40 -28 -14 3 -46 8 -71 11 -51 7 -109 25 -128
38 -17 13 -6 116 15 139 31 34 124 48 192 28z m618 -85 c0 -8 -4 -12 -9 -9 -5
3 -6 10 -3 15 9 13 12 11 12 -6z m-507 -13 c0 -5 -7 -17 -15 -28 -14 -18 -14
-17 -4 9 12 27 19 34 19 19z m487 -30 c18 -9 34 -23 37 -32 2 -8 4 -3 5 12 1
22 -2 26 -16 21 -14 -5 -15 -3 -6 7 14 15 33 5 33 -18 0 -15 2 -15 10 -2 6 10
10 11 10 3 0 -7 14 -20 30 -28 17 -9 28 -20 25 -25 -3 -5 -1 -11 4 -15 6 -3 8
3 6 15 -4 22 14 27 33 8 9 -9 12 -9 12 1 0 7 5 9 11 6 6 -4 16 1 23 10 12 16
13 16 11 -6 -3 -29 3 -41 16 -33 6 3 5 12 -3 21 -11 14 -10 15 10 9 12 -3 31
-9 42 -12 11 -3 20 -10 20 -15 0 -5 0 -12 0 -16 0 -5 -5 -8 -12 -8 -6 0 -13
-7 -15 -15 -3 -9 -1 -11 4 -5 4 6 17 11 28 13 14 2 10 -3 -13 -17 -18 -12 -35
-21 -38 -21 -10 0 -34 -28 -34 -39 0 -6 2 -11 4 -11 12 0 81 34 93 46 21 20
38 18 22 -3 -12 -16 -11 -16 8 0 12 10 27 20 35 21 7 2 21 6 31 11 10 4 21 5
24 1 4 -3 -1 -6 -10 -6 -11 0 -17 -8 -16 -22 1 -17 2 -19 6 -5 3 13 11 16 31
11 21 -4 24 -3 12 5 -8 6 -10 11 -4 11 16 0 23 -10 17 -25 -2 -8 -11 -11 -19
-8 -8 3 -14 0 -14 -6 0 -6 4 -11 10 -11 13 0 80 -60 80 -72 0 -5 11 -24 24
-41 13 -18 32 -51 41 -74 10 -24 22 -43 27 -43 12 0 5 -151 -10 -205 -6 -22
-14 -57 -17 -77 -3 -21 -17 -50 -30 -64 -14 -15 -25 -32 -25 -39 0 -6 -11 -21
-24 -32 -13 -12 -28 -27 -32 -35 -8 -12 -66 -52 -149 -101 -11 -7 -32 -20 -46
-29 -14 -9 -64 -27 -110 -38 -46 -12 -95 -25 -109 -30 -14 -6 -40 -11 -57 -12
-18 -1 -33 -7 -34 -13 -1 -5 -5 1 -9 15 -7 23 -8 22 -10 -10 -1 -19 -4 -28 -7
-20 -3 8 -10 18 -15 21 -6 4 -11 18 -11 33 -1 14 -4 26 -7 27 -3 0 -15 2 -27
5 -23 4 -45 -13 -64 -47 -5 -11 -14 -17 -20 -14 -5 4 -9 3 -9 -2 0 -4 -44 -6
-97 -4 -73 2 -120 10 -186 32 -49 16 -99 29 -112 29 -13 0 -30 6 -37 13 -7 7
-21 16 -31 20 -10 4 -16 11 -13 16 4 5 -8 13 -26 16 -18 4 -43 14 -55 22 -12
8 -27 12 -33 8 -6 -3 -10 3 -10 14 0 14 -6 21 -20 21 -11 0 -20 6 -20 13 -1
15 -46 67 -59 67 -5 0 -12 18 -16 40 -4 22 -10 40 -14 40 -4 0 -13 26 -20 58
-15 69 -3 176 30 273 18 51 19 63 8 70 -9 6 -10 9 -2 9 6 0 19 -7 27 -16 15
-14 16 -14 16 0 0 9 -4 16 -8 16 -5 0 -9 7 -9 15 0 12 6 10 25 -7 14 -13 22
-17 18 -10 -12 21 65 14 94 -8 30 -24 44 -25 60 -5 7 8 9 15 4 15 -5 0 -23 13
-39 28 -17 15 -25 23 -18 18 8 -5 16 -6 20 -2 3 3 1 6 -6 6 -7 0 -10 4 -7 9 7
10 -13 9 -31 -2 -6 -4 -18 0 -27 9 -9 8 -19 13 -24 10 -4 -2 -14 0 -22 5 -11
7 -1 9 33 4 43 -6 47 -5 47 15 0 14 10 25 30 34 17 7 27 16 23 20 -5 5 2 5 14
2 13 -4 24 -2 29 5 5 9 2 10 -12 6 -18 -7 -18 -6 -2 6 10 8 14 18 10 22 -4 4
0 5 8 3 8 -3 14 -11 12 -17 -1 -6 3 -11 9 -11 5 0 8 -4 4 -9 -3 -6 14 1 39 15
44 24 61 47 50 65 -3 5 -1 9 4 9 5 0 14 -10 19 -22 10 -22 11 -22 20 11 8 30
13 34 51 37 23 2 61 11 84 20 63 24 122 32 228 32 67 0 104 -5 127 -16z m-500
-74 c-3 -8 -6 -5 -6 6 -1 11 2 17 5 13 3 -3 4 -12 1 -19z m858 -26 c-8 -8 -25
10 -19 20 4 6 9 5 15 -3 4 -7 6 -15 4 -17z m-1082 -29 c-7 -2 -19 -2 -25 0 -7
3 -2 5 12 5 14 0 19 -2 13 -5z m36 -7 c-15 -13 -49 -25 -49 -17 0 5 8 12 18
14 24 6 36 8 31 3z m600 -983 c1 -37 -2 -43 -19 -43 -17 0 -20 7 -20 48 0 53
19 86 32 55 3 -10 7 -37 7 -60z m-74 27 c3 -5 1 -10 -4 -10 -6 0 -11 5 -11 10
0 6 2 10 4 10 3 0 8 -4 11 -10z m317 -119 c4 -1 14 -14 23 -31 30 -59 13 -131
-46 -187 -29 -27 -46 -34 -105 -42 -101 -15 -246 -3 -312 25 -73 30 -108 79
-75 105 7 6 13 20 13 29 0 28 85 91 141 105 30 8 298 5 361 -4z"/>
<path d="M2483 1505 c0 -8 4 -12 9 -9 5 3 6 10 3 15 -9 13 -12 11 -12 -6z"/>
<path d="M2651 1466 c-9 -11 -9 -16 1 -22 7 -4 10 -4 6 1 -4 4 -3 14 3 22 6 7
9 13 6 13 -2 0 -10 -6 -16 -14z"/>
<path d="M1816 1422 c-3 -5 1 -9 9 -9 8 0 12 4 9 9 -3 4 -7 8 -9 8 -2 0 -6 -4
-9 -8z"/>
<path d="M2783 1415 c0 -8 4 -12 9 -9 5 3 6 10 3 15 -9 13 -12 11 -12 -6z"/>
<path d="M2723 1263 c-7 -2 -13 -10 -13 -16 0 -31 -48 -106 -92 -144 -62 -52
-158 -79 -240 -68 -71 10 -84 17 -149 87 -50 54 -59 59 -78 49 -11 -7 -21 -18
-21 -27 0 -22 -49 -114 -61 -114 -5 0 -8 -4 -5 -9 12 -18 -95 -61 -153 -61
-79 0 -117 28 -125 92 -4 26 -11 48 -16 48 -6 0 -10 6 -10 14 0 9 -7 12 -20 9
-11 -3 -20 -12 -20 -20 0 -8 -4 -12 -9 -9 -4 3 -5 -13 -1 -36 6 -31 20 -52 54
-85 45 -42 47 -43 113 -43 122 1 184 27 258 107 l41 44 36 -24 c36 -25 88 -44
123 -45 141 -6 151 -8 182 -31 18 -13 30 -28 28 -32 -3 -4 9 -12 27 -18 18 -6
42 -20 53 -31 21 -20 21 -20 44 4 13 14 23 37 23 57 0 19 3 39 7 44 3 6 6 15
7 20 6 34 26 96 44 130 11 21 20 47 20 57 0 10 5 18 10 18 6 0 5 8 -2 20 -12
19 -30 24 -55 13z m-45 -239 c-15 -94 -32 -111 -77 -76 -53 40 -69 58 -62 70
6 10 118 58 142 61 3 1 2 -24 -3 -55z"/>
<path d="M1628 1223 c7 -3 16 -2 19 1 4 3 -2 6 -13 5 -11 0 -14 -3 -6 -6z"/>
<path d="M2162 284 c-18 -7 -32 -20 -32 -29 0 -14 3 -14 30 0 18 9 40 13 55 9
19 -5 25 -2 25 10 0 9 -3 16 -7 17 -5 0 -15 2 -24 4 -8 1 -30 -3 -47 -11z"/>
<path d="M2407 293 c-15 -14 -5 -19 35 -17 55 2 64 24 11 24 -22 0 -43 -3 -46
-7z"/>
<path d="M2283 230 c-85 -9 -93 -13 -93 -46 0 -19 8 -28 35 -40 44 -18 86 -17
155 4 43 14 56 23 58 40 2 13 -2 30 -8 38 -13 15 -34 16 -147 4z m112 -20 c3
-5 -4 -10 -17 -11 -13 0 -47 -2 -75 -3 -29 -1 -53 2 -53 6 0 16 135 24 145 8z
m25 -31 c0 -12 -78 -21 -140 -17 -53 4 -53 4 15 6 39 1 76 6 83 10 16 11 42
11 42 1z"/>
<path d="M2291 3821 c-23 -42 -10 -91 24 -91 42 0 73 63 43 88 -28 22 -57 23
-67 3z"/>
<path d="M2737 3783 c-28 -7 -77 -125 -92 -220 -13 -84 35 -154 114 -168 103
-17 177 63 181 195 3 88 0 100 -33 134 -49 53 -111 74 -170 59z m127 -67 c66
-42 46 -219 -29 -266 -40 -25 -71 -25 -111 -1 -40 24 -49 69 -33 152 9 45 21
70 48 100 32 35 40 40 70 35 18 -3 43 -12 55 -20z"/>
<path d="M1757 3759 c-3 -11 -3 -36 0 -55 4 -27 2 -35 -13 -40 -60 -19 -74
-28 -74 -45 0 -21 32 -25 73 -10 30 12 37 -4 37 -89 0 -113 40 -170 119 -170
45 0 191 50 191 66 0 21 -34 25 -76 11 -52 -19 -130 -30 -153 -22 -25 8 -39
50 -47 144 l-7 78 29 10 c16 6 50 17 77 23 87 23 60 48 -33 30 -68 -13 -80
-13 -80 3 0 24 -21 87 -29 87 -5 0 -11 -9 -14 -21z"/>
<path d="M3196 3698 c-12 -77 -15 -268 -5 -274 18 -11 33 14 45 74 21 97 49
149 90 162 61 20 81 8 94 -56 9 -43 9 -71 0 -121 -13 -68 -9 -84 18 -67 23 15
30 46 31 136 1 90 -8 115 -55 147 -46 32 -105 23 -152 -22 l-32 -31 6 33 c5
23 3 36 -7 42 -23 14 -28 11 -33 -23z"/>
<path d="M1320 3659 c-6 -11 -10 -30 -8 -42 6 -45 88 -28 88 18 0 42 -61 61
-80 24z"/>
<path d="M2344 3579 c18 -179 18 -180 33 -175 8 3 17 6 19 6 10 0 1 101 -14
159 -24 90 -47 96 -38 10z"/>
<path d="M736 3620 c-16 -5 -33 -7 -37 -5 -4 3 -10 -6 -13 -19 -5 -21 4 -55
34 -121 19 -42 63 -153 86 -214 12 -35 33 -74 45 -87 20 -22 24 -22 39 -9 9 8
20 15 24 15 20 0 69 46 103 97 60 91 63 199 7 267 -51 61 -206 102 -288 76z
m165 -42 c62 -21 106 -64 115 -111 8 -45 8 -52 -7 -108 -12 -49 -96 -158 -122
-159 -9 0 -87 157 -87 175 0 6 -10 31 -22 56 -31 65 -49 139 -35 144 52 17
115 18 158 3z"/>
<path d="M830 3431 c0 -6 4 -11 9 -11 5 0 22 -32 37 -71 l28 -71 18 24 c15 19
51 106 45 109 -3 1 -31 8 -57 13 -14 3 -37 8 -52 12 -17 3 -28 1 -28 -5z"/>
<path d="M1395 3438 c11 -77 48 -162 74 -166 26 -4 26 -3 2 72 -10 34 -23 79
-28 101 -6 31 -13 41 -32 43 -22 4 -23 2 -16 -50z"/>
</g>
</svg>
